<svg width="50" height="50" viewBox="0 0 50 50" fill="none" xmlns="http://www.w3.org/2000/svg">
<g id="solar:dollar-bold-duotone">
<g id="Group">
<path id="Vector" opacity="0.5" fill-rule="evenodd" clip-rule="evenodd" d="M45.8334 25C45.8334 36.5062 36.5063 45.8333 25.0001 45.8333C13.4938 45.8333 4.16675 36.5062 4.16675 25C4.16675 13.4937 13.4938 4.16666 25.0001 4.16666C36.5063 4.16666 45.8334 13.4937 45.8334 25Z" fill="black" fill-opacity="0.9"/>
<path id="Vector_2" fill-rule="evenodd" clip-rule="evenodd" d="M25 10.9375C25.4144 10.9375 25.8118 11.1021 26.1049 11.3951C26.3979 11.6882 26.5625 12.0856 26.5625 12.5V13.1604C29.9583 13.7687 32.8125 16.3208 32.8125 19.7917C32.8125 20.2061 32.6479 20.6035 32.3549 20.8965C32.0618 21.1895 31.6644 21.3542 31.25 21.3542C30.8356 21.3542 30.4382 21.1895 30.1451 20.8965C29.8521 20.6035 29.6875 20.2061 29.6875 19.7917C29.6875 18.3792 28.5125 16.8812 26.5625 16.3479V23.5771C29.9583 24.1854 32.8125 26.7375 32.8125 30.2083C32.8125 33.6792 29.9583 36.2313 26.5625 36.8396V37.5C26.5625 37.9144 26.3979 38.3118 26.1049 38.6049C25.8118 38.8979 25.4144 39.0625 25 39.0625C24.5856 39.0625 24.1882 38.8979 23.8951 38.6049C23.6021 38.3118 23.4375 37.9144 23.4375 37.5V36.8396C20.0417 36.2313 17.1875 33.6792 17.1875 30.2083C17.1875 29.7939 17.3521 29.3965 17.6451 29.1035C17.9382 28.8105 18.3356 28.6458 18.75 28.6458C19.1644 28.6458 19.5618 28.8105 19.8549 29.1035C20.1479 29.3965 20.3125 29.7939 20.3125 30.2083C20.3125 31.6208 21.4875 33.1187 23.4375 33.65V26.4229C20.0417 25.8146 17.1875 23.2625 17.1875 19.7917C17.1875 16.3208 20.0417 13.7687 23.4375 13.1604V12.5C23.4375 12.0856 23.6021 11.6882 23.8951 11.3951C24.1882 11.1021 24.5856 10.9375 25 10.9375ZM23.4375 16.3479C21.4875 16.8812 20.3125 18.3792 20.3125 19.7917C20.3125 21.2042 21.4875 22.7021 23.4375 23.2333V16.3479ZM29.6875 30.2083C29.6875 28.7958 28.5125 27.2979 26.5625 26.7667V33.65C28.5125 33.1187 29.6875 31.6208 29.6875 30.2083Z" fill="black" fill-opacity="0.9"/>
</g>
</g>
</svg>
