<svg width="63" height="50" viewBox="0 0 63 50" fill="none" xmlns="http://www.w3.org/2000/svg">
<g id="fa6-solid:plane-departure" clip-path="url(#clip0_1_25)">
<path id="Vector" d="M37.207 11.2208L18.1738 4.08209C16.543 3.47662 14.7363 3.56451 13.1836 4.34576L8.70117 6.58209C7.61719 7.12896 7.53906 8.64263 8.55469 9.29693L22.9004 18.5254L13.2812 23.4376L7.59766 20.9083C6.74805 20.5274 5.76172 20.5469 4.93164 20.9669L1.78711 22.5391C0.878906 22.9981 0.634766 24.1797 1.29883 24.9512L8.4375 33.2813C9.0332 33.9747 9.90234 34.3751 10.8105 34.3751H24.2578C24.7461 34.3751 25.2246 34.2579 25.6543 34.043L52.3047 20.7227C56.8457 18.4473 60.3613 14.5411 62.1484 9.78521C63.0762 7.32427 61.25 4.68756 58.6133 4.68756H53.0078C51.0352 4.68756 49.082 5.1563 47.3242 6.05474L37.207 11.2208ZM0 46.8751C0 48.6036 1.39648 50.0001 3.125 50.0001H59.375C61.1035 50.0001 62.5 48.6036 62.5 46.8751C62.5 45.1465 61.1035 43.7501 59.375 43.7501H3.125C1.39648 43.7501 0 45.1465 0 46.8751Z" fill="black"/>
</g>
<defs>
<clipPath id="clip0_1_25">
<rect width="62.5" height="50" fill="white"/>
</clipPath>
</defs>
</svg>
