<svg width="50" height="50" viewBox="0 0 50 50" fill="none" xmlns="http://www.w3.org/2000/svg">
<g id="material-symbols:mail">
<path id="Vector" d="M8.3333 41.6666C7.18746 41.6666 6.20621 41.2583 5.38955 40.4417C4.57288 39.625 4.16524 38.6444 4.16663 37.5V12.5C4.16663 11.3541 4.57496 10.3729 5.39163 9.55623C6.2083 8.73957 7.18885 8.33193 8.3333 8.33332H41.6666C42.8125 8.33332 43.7937 8.74165 44.6104 9.55832C45.427 10.375 45.8347 11.3555 45.8333 12.5V37.5C45.8333 38.6458 45.425 39.6271 44.6083 40.4437C43.7916 41.2604 42.8111 41.668 41.6666 41.6666H8.3333ZM25 27.0833L41.6666 16.6666V12.5L25 22.9166L8.3333 12.5V16.6666L25 27.0833Z" fill="black"/>
</g>
</svg>
