<svg width="34" height="44" viewBox="0 0 34 44" fill="none" xmlns="http://www.w3.org/2000/svg">
<path id="Vector" d="M4.16667 43.75C3.02084 43.75 2.03959 43.3417 1.22292 42.525C0.406253 41.7083 -0.00138535 40.7278 3.53707e-06 39.5833V18.75C3.53707e-06 17.6042 0.408336 16.6229 1.225 15.8063C2.04167 14.9896 3.02223 14.5819 4.16667 14.5833H6.25V10.4167C6.25 7.53472 7.26598 5.07778 9.29792 3.04583C11.3299 1.01389 13.7861 -0.00138747 16.6667 1.42304e-06C19.5486 1.42304e-06 22.0056 1.01597 24.0375 3.04792C26.0694 5.07986 27.0847 7.53611 27.0833 10.4167V14.5833H29.1667C30.3125 14.5833 31.2938 14.9917 32.1104 15.8083C32.9271 16.625 33.3347 17.6056 33.3333 18.75V39.5833C33.3333 40.7292 32.925 41.7104 32.1083 42.5271C31.2917 43.3438 30.3111 43.7514 29.1667 43.75H4.16667ZM16.6667 33.3333C17.8125 33.3333 18.7938 32.925 19.6104 32.1083C20.4271 31.2917 20.8347 30.3111 20.8333 29.1667C20.8333 28.0208 20.425 27.0396 19.6083 26.2229C18.7917 25.4062 17.8111 24.9986 16.6667 25C15.5208 25 14.5396 25.4083 13.7229 26.225C12.9063 27.0417 12.4986 28.0222 12.5 29.1667C12.5 30.3125 12.9083 31.2938 13.725 32.1104C14.5417 32.9271 15.5222 33.3347 16.6667 33.3333ZM10.4167 14.5833H22.9167V10.4167C22.9167 8.68056 22.309 7.20486 21.0938 5.98958C19.8785 4.77431 18.4028 4.16667 16.6667 4.16667C14.9306 4.16667 13.4549 4.77431 12.2396 5.98958C11.0243 7.20486 10.4167 8.68056 10.4167 10.4167V14.5833Z" fill="black"/>
</svg>
